<?xml version="1.0" encoding="iso-8859-1"?>
<!-- Generator: Adobe Illustrator 19.0.0, SVG Export Plug-In . SVG Version: 6.00 Build 0)  -->
<svg version="1.1" id="Layer_1" xmlns="http://www.w3.org/2000/svg" xmlns:xlink="http://www.w3.org/1999/xlink" x="0px" y="0px"
	 viewBox="0 0 512 512" style="enable-background:new 0 0 512 512;" xml:space="preserve">
<circle style="fill:#FDF2AC;" cx="256" cy="256" r="256"/>
<path style="fill:#AAC864;" d="M512,256C512,114.615,397.385,0,256,0S0,114.615,0,256c0,4.289,0.152,8.54,0.379,12.772
	c0.027,0.546,0.019,1.101,0.049,1.646c0.022,0.011,0.043,0.021,0.065,0.033c0.16,2.674,0.315,5.349,0.546,8.003
	c4.111,3.078,9.064,5.799,14.961,7.735V344h8v-55.809c3.099,0.506,6.408,0.809,10,0.809c7.607,0,13.79-0.904,19-2.248V344h8v-59.893
	c9.669-3.887,15.534-8.69,22.667-9.05v64.609h8v-64.104c8.333,0.998,19.31,3.112,29,4.291V330h8v-49.466
	c3.695,0.172,7,0.103,9.333-0.534v51.667h8v-53.532c1.791-0.375,3.657-0.734,5.667-1.092V332h8v-56.187
	c9.77-1.288,19.897-1.682,26.5,0.277V332h8v-53.297c5.37,1.167,12.579,1.368,20.167,0.797V332h8v-53.376
	c1.455-0.208,2.897-0.442,4.333-0.702V332h8v-55.837c4.419-1.158,8.497-2.548,11.833-4.163c5.874-2.842,17.371-1.576,30.667-0.851
	V324h8v-52.543c8.068,0.194,16.466-0.139,24.5-1.853V321.5h8v-54.11c6.969-2.518,13.361-6.537,18.703-12.579l10.416-0.56
	c5.693,3.53,14.884,8.381,26.381,11.72V318.5h8v-50.532c11.134,2.23,23.906,2.711,37.5-0.635c0,0,2.824,1.636,7.5,3.833V322h8
	v-47.392c2.75,1.092,5.721,2.198,9,3.25V330h8v-49.876c2.836,0.716,5.796,1.322,8.833,1.845V336.5h8v-53.482
	c7.477,0.695,15.251,0.509,23-0.996V342.5h5.98c0.708-1.973,1.359-3.973,2.02-5.968V279.93c4.161-1.364,8.28-3.051,12.26-5.409
	C511.699,268.397,512,262.235,512,256z"/>
<path style="fill:#88BE64;" d="M500.165,178.91h-7.258v-0.61c0-4.805-3.895-8.7-8.7-8.7H451.95c-4.805,0-8.7,3.895-8.7,8.7v0.61
	h-2.897c-0.418-4.415-4.016-7.911-8.541-7.911h-2.9c0-4.805-3.895-8.7-8.7-8.7h-11.6c0-4.805-3.895-8.7-8.7-8.7h-19.845v-0.636
	c0-4.805-3.895-8.7-8.7-8.7H356.74v-1.298c0-4.805-3.895-8.7-8.7-8.7h-35.92c-4.805,0-8.7,3.895-8.7,8.7v1.298h-14.63
	c-4.805,0-8.7,3.895-8.7,8.7v1.298h-4.63c-4.805,0-8.7,3.895-8.7,8.7v2.595c0,0.722,0.245,1.364,0.411,2.035h-1.708
	c-4.6,0-8.271,3.602-8.583,8.122c-1.431,0.068-2.712,0.527-3.88,1.205c-1.111-4.241-4.799-7.436-9.389-7.436h-13.178
	c0-5.458-4.425-9.883-9.883-9.883h-32.944c-5.458,0-9.883,4.425-9.883,9.883h-13.178c-5.458,0-9.883,4.425-9.883,9.883h-0.27
	c-0.279-0.023-0.518-0.162-0.803-0.162h-3.294c0-5.458-4.425-9.883-9.883-9.883h-13.177c0-5.458-4.425-9.883-9.883-9.883H84.409
	c-5.458,0-9.883,4.425-9.883,9.883H61.348c-5.458,0-9.883,4.425-9.883,9.883H48.17c-4.321,0-7.892,2.813-9.235,6.677H27.407
	c-4.763,0-8.624,3.861-8.624,8.624H7.486c-4.757,19.289-7.346,39.426-7.453,60.158c2.949-0.483,5.424-2.371,6.562-5.042l6.439,6.439
	v7.434c0,0.764,0.303,1.494,0.842,2.033l15.371,15.371v55.622h13.005v-57.215h11.026c0.764,0,1.494-0.303,2.032-0.842l11.957-11.957
	h33.072v65.571h14.904v-47.273l26.534-26.534h15.107c0.875,0,1.712-0.348,2.33-0.965l5.461-5.461h9.753
	c0.083,0,0.153-0.042,0.235-0.047l13.907,13.907c0.618,0.618,1.454,0.965,2.329,0.965h12.637v65.571h14.904v-63.745l17.616-17.615
	c0.618-0.618,0.965-1.454,0.965-2.33v-8.519l0.596-0.596h1.06l7.851,7.851c0.543,0.544,1.28,0.85,2.05,0.85h17.4
	c0.074,0,0.135-0.037,0.208-0.042l12.242,12.242c0.543,0.544,1.28,0.85,2.05,0.85h11.124v57.721h13.12v-56.113l15.507-15.507
	c0.544-0.544,0.85-1.28,0.85-2.05v-2.659h8.453v66.33h15.076v-64.483l7.888-7.888h0.482c1.877,0,3.522-0.722,4.943-1.733h1.391
	c0.073,0,0.135-0.036,0.207-0.042L371.761,247c0.544,0.543,1.28,0.85,2.051,0.85h11.124v57.721h13.12v-56.114l2.6-2.6
	c0.549,0.109,1.057,0.331,1.639,0.331h8.636l8.401,8.401c0.582,0.582,1.37,0.91,2.194,0.91h18.621c0.079,0,0.145-0.039,0.222-0.045
	l13.102,13.102c0.582,0.582,1.37,0.909,2.194,0.909h11.905v61.772h14.041v-60.053l16.595-16.595c0.582-0.582,0.909-1.37,0.909-2.194
	v-8.026l6.842-6.842c0.985,2.526,3.107,4.449,5.734,5.193C510.627,221.234,506.663,199.512,500.165,178.91z M13.035,247.931
	l-7.433-7.434h7.433V247.931z M29.248,272.767l-10.464-10.463v-11.993l10.464,10.464C29.248,260.775,29.248,272.767,29.248,272.767z
	 M29.248,252.646l-10.464-10.464v-2.265c1.808-0.647,3.241-1.894,4.261-3.485c1.275,2.428,3.493,4.159,6.203,4.87
	C29.248,241.302,29.248,252.646,29.248,252.646z M42.252,243.832l6.883,6.883c0.235,0.235,0.525,0.392,0.814,0.544l-7.697,7.697
	V243.832z M52.088,273.555h-9.835v-6.469l13.058-13.058c0.539-0.539,0.842-1.269,0.842-2.032v-0.316h11.498v6.065
	c0,0.073,0.036,0.134,0.042,0.206L52.088,273.555z M73.153,260.619l3.65-3.65l3.65,3.65H73.153z M86.739,257.588l-5.277-5.277
	l3.499-3.499c-0.004,0.109-0.063,0.2-0.063,0.31c0,2.818,1.441,5.202,3.532,6.776L86.739,257.588z M100.339,259.916h-7.798
	l2.171-2.171h5.627V259.916z M115.243,245.27l1.394-1.394c0.136-0.127,0.258-0.25,0.386-0.386l8.566-8.566
	c0.358,1.168,0.912,2.203,1.647,3.143v8.955l-11.992,11.992V245.27H115.243z M138.088,252.641c-0.003,0.003-0.006,0.006-0.009,0.009
	l-22.836,22.836v-7.155l17.616-17.615c0.618-0.618,0.965-1.454,0.965-2.33v-6.643c0.369,0.042,0.692,0.217,1.073,0.217h8.519
	l2.677,2.677L138.088,252.641z M148.366,251.68l2.385-2.385l1.583,1.583c0.418,0.418,0.952,0.656,1.515,0.803L148.366,251.68
	L148.366,251.68z M203.537,260.078h-11.272l-17.883-17.883c0.006-0.082,0.047-0.152,0.047-0.235v-4.584
	c3.237-1.623,5.516-4.888,5.516-8.756c0-0.576-0.223-1.075-0.322-1.619h7.983v8.37c0,0.875,0.348,1.711,0.965,2.329l14.966,14.966
	V260.078z M203.537,243.348l-9.342-9.342V227h9.342V243.348z M218.441,226.71c1.223,0.655,2.553,1.123,4.037,1.123h0.585
	c-0.328,0.916-0.585,1.871-0.585,2.9c0,0.397,0.175,0.736,0.226,1.119l-4.263,4.263V226.71z M230.433,247.184l-11.992,11.992
	v-13.744l7.757-7.757c1.229,0.883,2.642,1.465,4.234,1.607v7.902H230.433z M249.779,242.333l-4.764-4.764
	c0.645-0.485,1.192-1.028,1.68-1.671c1.774,1.694,4.152,2.767,6.798,2.767h3.266l3.668,3.668H249.779z M291.602,255.383h-9.923
	l-15.743-15.743c0.005-0.072,0.042-0.134,0.042-0.208v-0.768h7.282c2.279,0,4.281-0.9,5.953-2.197l12.389,12.389V255.383z
	 M315.278,244.032l-10.557,10.557V242.49l5.282-5.282l4.389,4.389c0.256,0.256,0.568,0.434,0.886,0.593V244.032z M315.278,223.732
	l-4.663,4.663l-5.894-5.893v-9.169h4.757c0,3.776,2.438,6.911,5.8,8.114L315.278,223.732L315.278,223.732z M384.935,242.049h-9.923
	l-13.482-13.482c0.022-0.254,0.148-0.474,0.148-0.734c0-0.143-0.074-0.261-0.081-0.402l0.83-0.83
	c0.625-0.625,0.977-1.471,0.977-2.356v-2.56c3.948-0.824,6.974-4.159,6.974-8.352c0-0.474-0.197-0.883-0.27-1.336l0.803,0.803v7.499
	c0,0.771,0.306,1.507,0.85,2.051l13.174,13.174L384.935,242.049L384.935,242.049z M384.935,221.619
	c-0.403,1.003-0.653,2.087-0.653,3.234v1.222c0,0.265,0.128,0.487,0.151,0.746l-7.722-7.722v-5.267
	c0.677,0.169,1.327,0.415,2.057,0.415h6.167V221.619z M433.939,234.774v6.474l-6.474-6.474H433.939z M422.81,250.292l-4.919-4.919
	c2.148-1.584,3.634-4.01,3.634-6.884v-0.877l12.681,12.681L422.81,250.292L422.81,250.292z M452.56,220.507v3.671l-2.146-2.146
	C451.195,221.605,451.949,221.144,452.56,220.507z M467.568,264.258h-10.62L440.1,247.41c0.006-0.077,0.045-0.144,0.045-0.222V232.6
	c1.861-1.596,3.104-3.882,3.104-6.526v-1.222c0-0.537-0.213-1.003-0.306-1.513l9.616,9.616v8.026c0,0.825,0.328,1.612,0.91,2.194
	l14.099,14.099L467.568,264.258L467.568,264.258z M467.568,248.497l-8.801-8.801v-20.44h8.801V248.497z M492.906,252.11
	l-11.297,11.297V250.46l11.297-11.297V252.11z M492.906,230.385l-11.297,11.297v-22.426h5.09v0.611c0,3.92,2.643,7.109,6.207,8.196
	V230.385z M499.113,236.592v-8.025h8.025L499.113,236.592z"/>
<path style="fill:#5FAF78;" d="M472,320c-5.642-8.462-23.234-12.937-44.329-15.547v-69.599l19.008-19.008h1.629
	c5.168,0,9.6-3.147,11.487-7.629h15.917c0.934,0,1.827-0.371,2.487-1.03l9.521-9.521h9.094c3.037,0,5.727-1.321,7.651-3.374
	C476.845,82.725,376.104,0,256,0C130.276,0,25.796,90.657,4.176,210.149h16.113c1.031,0,1.965-0.311,2.907-0.587l14.678,14.678
	v9.095c0,0.935,0.371,1.827,1.031,2.487l17.584,17.584c0.049,0.049,0.115,0.065,0.166,0.11v69.355
	c-16.432,3.17-32.904,5.962-45.895,6.614C42.347,435.044,140.165,512,256,512c112.811,0,208.508-73.001,242.61-174.316
	C486.965,333.117,476.873,327.31,472,320z M461.644,201.053v-1.911c4.22-0.297,7.832-2.669,9.852-6.13
	c1.555,2.238,3.871,3.762,6.653,4.278l-3.893,3.893h-12.638C461.619,201.137,461.644,201.099,461.644,201.053z M37.873,214.294
	l-8.96-8.96c1.118-1.674,1.927-3.571,1.927-5.735c0-2.729-1.103-5.161-2.803-7.034h9.836V214.294z M394.822,206.787v-0.005v-16.66
	c0.646,2.301,1.913,4.319,3.64,5.875v20.207l-1.658,1.658l-1.982-1.982L394.822,206.787L394.822,206.787z M365.231,197.804h8.308
	v8.015l-8.308,8.308V197.804z M365.231,225.874l15.398-15.398c0.779-0.779,1.217-1.833,1.217-2.937V202.3l5.942,5.942v9.094
	c0,0.935,0.371,1.827,1.03,2.487l3.012,3.012l-26.6,26.6v-23.561H365.231z M319.539,190.923v25.665l-10.42-10.419
	c1.332-1.983,2.112-4.369,2.112-6.938c0-3.206-1.245-6.1-3.234-8.308H319.539z M238.769,186.615h10.59l-10.59,10.59V186.615z
	 M259.126,191.207c-0.005,0.165-0.049,0.319-0.049,0.485c0,2.975,0.887,5.729,2.362,8.075c0.094,2.18,0.741,4.205,1.815,5.954
	L256.975,212h-18.642L259.126,191.207z M208.308,161.23h8.052l-8.052,8.052V161.23z M188,161.23h10.154v33.437L188,204.821V161.23z
	 M188,219.179l18.82-18.82c0.952-0.952,1.487-2.241,1.487-3.59v-13.128l15.637-15.637c-0.248,1.091-0.406,2.215-0.406,3.381
	c0,4.493,1.982,8.49,5.077,11.278v24.26c0,0.129,0.064,0.237,0.073,0.363l-27.56,27.56H188V219.179z M111.729,200.95
	c1.023-0.354,1.994-0.798,2.905-1.352h5.621c-0.397,1.111-0.71,2.27-0.71,3.517c0,5.166,3.785,9.266,8.688,10.175l-3.893,3.893
	h-5.209l-7.402-7.402C111.729,209.781,111.729,200.95,111.729,200.95z M89.597,209.119c0.659-0.66,1.03-1.552,1.03-2.487v-3.595
	l12.5,12.5l-5.513,5.513l-9.974-9.974L89.597,209.119z M90.435,228.229l-12.679,12.679V220.96l2.705-2.705L90.435,228.229z
	 M56.654,243.626l-11.747-11.747v-27.307l11.581,11.581c0.049,0.049,0.115,0.065,0.166,0.11V243.626z M59.453,209.171
	l-14.546-14.546v-2.771c4.078-1.459,7.034-5.261,7.034-9.841h7.512V209.171z M74.897,213.873h-0.1v-12.179
	c0.504,0.05,0.993,0.152,1.511,0.152h7.286v3.33L74.897,213.873z M157.539,318.41C143.767,315.015,130.376,312,120,312
	c-8.598,0-24.422,3.09-42.244,6.676v-67.821l18.599-18.599c0.09,0.005,0.17,0.052,0.261,0.052h23.283l37.641,37.641v48.461H157.539z
	 M157.539,255.59l-30.829-30.829l5.513-5.513l25.316,25.316L157.539,255.59L157.539,255.59z M157.539,230.206l-15.231-15.231v-1.308
	h4.591c4.141,0,7.638-2.444,9.365-5.916l1.275,1.275V230.206z M340.308,298.592c-5.686-0.631-10.011-1.443-12.308-2.592
	c-16-8-96,32-120,32c-5.861,0-12.696-0.974-20-2.416V245h15.231c1.348,0,2.637-0.536,3.589-1.487l21.432-21.432
	c0.126,0.009,0.234,0.073,0.363,0.073h30.462c1.348,0,2.637-0.536,3.589-1.487l8.974-8.974h31.255l16.643,16.643v10.741
	c0,1.104,0.438,2.158,1.217,2.937l19.552,19.552L340.308,298.592L340.308,298.592z M340.308,249.818l-12.461-12.461v-32.252
	l12.461,12.461V249.818z M340.308,205.818l-12.461-12.462v-3.197c4.829-1.717,8.308-6.28,8.308-11.698h3.921
	c-0.883,1.542-1.524,3.233-1.524,5.137c0,2.055,0.741,3.861,1.757,5.483v16.737H340.308z M406.569,302.444
	c-14.156-1.022-28.633-1.571-41.338-2.168v-39.095l32.474-32.474l8.698,8.699c0.049,0.049,0.115,0.065,0.167,0.111L406.569,302.444
	L406.569,302.444z"/>
<path style="fill:#5F8787;" d="M466.228,402.016c-24.966,4.609-50.7,8.546-58.228,5.984c-23.5-8-28-29.5-63.5-27.5
	c-22.985,1.295-32.564-3.751-51.754-12.938C284.973,363.84,280,356.034,280,347.417v-96.104L339.313,192H376
	c2.121,0,4.155-0.843,5.655-2.342l16.001-16.001c3.125-3.125,3.125-8.188,0-11.313s-8.188-3.125-11.313,0L372.688,176h-17.375l32-32
	h19.169c13.814,0,26.144-11.32,25.492-25.119c-0.271-5.729-2.604-10.887-6.202-14.881h4.871c9.056,0,17.367-4.786,21.858-12.042
	C405.541,35.767,334.957,0,256,0C165.221,0,85.538,47.292,40.083,118.541C42.576,119.417,45.208,120,48,120h1.47
	c-1.859,5.23-2.344,11.121,0.876,17.688C54.761,146.69,64.372,152,74.398,152h18.29l21.656,21.656c1.5,1.5,3.536,2.344,5.658,2.344
	H168c0.203,0,0.373-0.101,0.572-0.115l33.771,33.771c1.5,1.5,3.536,2.344,5.658,2.344H232v125.396
	c0,8.166-4.327,15.786-11.473,19.736C203.996,366.267,180.383,376,160,376c-32,0-64-8-104,16c-4.286,2.571-8.562,4.601-12.798,6.323
	C89.137,466.866,167.291,512,256,512C343.096,512,419.984,468.469,466.228,402.016z M320,104h20.688L320,124.688V104z M280,80h8
	c0,10.435,6.7,19.224,16,22.53v6.157l-24,24V80z M280,155.313l24-24v33.375l-24,24V155.313z M280,211.313l37.656-37.656
	c1.5-1.5,2.344-3.531,2.344-5.656v-20.688l17.916-17.916C341.573,137.98,350.081,144,360,144h4.688l-34.333,34.333
	c-0.006,0.006-0.014,0.014-0.021,0.021L280,228.688V211.313z M200,80v12.688L187.313,80H200z M152,120v16.688L135.313,120H152z
	 M123.313,160l-12.91-12.91C116.198,142.708,120,135.826,120,128c0-0.262-0.069-0.505-0.077-0.765L152.688,160H123.313z M232,196
	h-20.688l-43.428-43.428c0.015-0.199,0.115-0.369,0.115-0.572v-38.229c4.876-4.393,8-10.691,8-17.771
	c0-1.837-0.249-3.609-0.64-5.328l24.64,24.64V136c0,2.125,0.844,4.156,2.344,5.656L232,171.313V196z M232,148.688l-16-16V80h16
	V148.688z"/>
<g>
</g>
<g>
</g>
<g>
</g>
<g>
</g>
<g>
</g>
<g>
</g>
<g>
</g>
<g>
</g>
<g>
</g>
<g>
</g>
<g>
</g>
<g>
</g>
<g>
</g>
<g>
</g>
<g>
</g>
</svg>
